# xmcd
#
# Track frame offsets:
#        187
#        10487
#        19525
#        29825
#        43640
#        51550
#        61612
#        71325
#        85850
#        96612
#        107005
#        118200
#        127325
#        137377
#        147815
#        157275
#        168487
#        178887
#        189030
#        202887
#        214237
#        219425
#        228242
#        233325
#        240837
#        252650
#        263847
#        271162
#        281387
#
# Disc length: 3898 seconds
#
# Revision: 0
# Processed by: cddbd v1.5.1PL0 Copyright (c) Steve Scherf et al.
# Submitted via: ExactAudioCopy v0.95a5
#
DISCID=a40f381d
DTITLE=Hank Williames - disc 5 Wery Blues (non-session recording)
DYEAR=1995
DGENRE=
TTITLE0=Please Don't Let Me Love You
TTITLE1=Faded Love And Winter Rose
TTITLE2=There's No Room In My Heart For The Blues
TTITLE3=Little Paper Boy
TTITLE4=I Wish I Had A Nickel
TTITLE5=Singing Waterfall
TTITLE6=Waltz Of The Wind
TTITLE7=At The First Fall Of Snow
TTITLE8=I'm Free At Last
TTITLE9=Leave Me Alone With The Blues
TTITLE10=It Just Don't Matter Now
TTITLE11=Alone And Forsaken
TTITLE12=Someday You'll Call My Name
TTITLE13=Thank God
TTITLE14=Blue Love In My Heart
TTITLE15=Battle Of Armageddon
TTITLE16=No One Will Ever Know
TTITLE17=With Tears In My Eyes
TTITLE18=Rock My Cradle (Once Again)
TTITLE19=Something Got A Hold Of Me
TTITLE20=When You're Tired Of Breaking Other Hearts
TTITLE21=Jesus Died For Me
TTITLE22=Alabama Waltz
TTITLE23=A House Of Gold
TTITLE24=How Can You Refuse Him Now ?
TTITLE25=A Teardrop On A Rose
TTITLE26=Wearin' Out Your Walkin' Shoes
TTITLE27=I Can't Escape From You
TTITLE28=Weary Blues From Waitin'
EXTD=
EXTT0=
EXTT1=
EXTT2=
EXTT3=
EXTT4=
EXTT5=
EXTT6=
EXTT7=
EXTT8=
EXTT9=
EXTT10=
EXTT11=
EXTT12=
EXTT13=
EXTT14=
EXTT15=
EXTT16=
EXTT17=
EXTT18=
EXTT19=
EXTT20=
EXTT21=
EXTT22=
EXTT23=
EXTT24=
EXTT25=
EXTT26=
EXTT27=
EXTT28=
PLAYORDER=
